<svg xmlns="http://www.w3.org/2000/svg" xmlns:xlink="http://www.w3.org/1999/xlink" xmlns:lucid="lucid" width="1760" height="1360"><g transform="translate(0 0)" lucid:page-tab-id="0_0"><path d="M0 0h1760v1360H0z" fill="#fff"/><path d="M400 81c0-6.63 5.37-12 12-12h936.17c6.63 0 12 5.37 12 12v39.08c0 6.62-5.37 12-12 12H412c-6.63 0-12-5.38-12-12z" stroke="#000" stroke-opacity="0" stroke-width="2" fill="#fff" fill-opacity="0"/><use xlink:href="#a" transform="matrix(1,0,0,1,405.00000000000006,73.99999999995924) translate(331.3148148148148 32.333333333333336)"/><use xlink:href="#b" transform="matrix(1,0,0,1,405.00000000000006,73.99999999995924) translate(468.7962962962963 32.333333333333336)"/><use xlink:href="#c" transform="matrix(1,0,0,1,405.00000000000006,73.99999999995924) translate(513.1666666666667 32.333333333333336)"/><path d="M655.13 144.87c0-6.63 5.37-12 12-12h430c6.63 0 12 5.37 12 12v9.92c0 6.62-5.37 12-12 12h-430c-6.63 0-12-5.38-12-12z" stroke="#000" stroke-opacity="0" stroke-width="2" fill="#fff" fill-opacity="0"/><use xlink:href="#d" transform="matrix(1,0,0,1,660.1315842073823,137.86936285871693) translate(55.14814814814815 15.11111111111111)"/><use xlink:href="#e" transform="matrix(1,0,0,1,660.1315842073823,137.86936285871693) translate(111.23456790123458 15.11111111111111)"/><use xlink:href="#f" transform="matrix(1,0,0,1,660.1315842073823,137.86936285871693) translate(182.05555555555557 15.11111111111111)"/><use xlink:href="#g" transform="matrix(1,0,0,1,660.1315842073823,137.86936285871693) translate(250.28395061728398 15.11111111111111)"/><use xlink:href="#h" transform="matrix(1,0,0,1,660.1315842073823,137.86936285871693) translate(262.94444444444446 15.11111111111111)"/><use xlink:href="#i" transform="matrix(1,0,0,1,660.1315842073823,137.86936285871693) translate(329.358024691358 15.11111111111111)"/><use xlink:href="#j" transform="matrix(1,0,0,1,660.1315842073823,137.86936285871693) translate(355.28395061728395 15.11111111111111)"/><path d="M621.4 124.6h521.57M621.4 124.6h-3M1142.97 124.6h3" stroke="#b2b2b2" stroke-width="2" fill="none"/><path d="M180 285c0-2.76 2.24-5 5-5h450c2.76 0 5 2.24 5 5v328c0 2.76-2.24 5-5 5H185c-2.76 0-5-2.24-5-5z" fill="#fff"/><path d="M180 285c0-2.76 2.24-5 5-5h450c2.76 0 5 2.24 5 5v328c0 2.76-2.24 5-5 5H185c-2.76 0-5-2.24-5-5zM180 320h460M240 320v298M519.95 320v298" stroke="#666" stroke-width="5" fill="none"/><use xlink:href="#k" transform="matrix(1,0,0,1,190,280) translate(180.72222222222223 23.11111111111111)"/><use xlink:href="#l" transform="matrix(1,0,0,1,185,322.5) translate(10.5 16.799999999999997)"/><use xlink:href="#m" transform="matrix(1,0,0,1,185,322.5) translate(13.524999999999999 38.4)"/><use xlink:href="#n" transform="matrix(1,0,0,1,245,322.5) translate(0 27.6)"/><use xlink:href="#o" transform="matrix(1,0,0,1,524.9488683761482,322.5) translate(0 27.6)"/><use xlink:href="#l" transform="matrix(1,0,0,1,185,375.5) translate(10.5 16.799999999999997)"/><use xlink:href="#m" transform="matrix(1,0,0,1,185,375.5) translate(13.524999999999999 38.4)"/><use xlink:href="#p" transform="matrix(1,0,0,1,245,375.5) translate(0 27.6)"/><use xlink:href="#o" transform="matrix(1,0,0,1,524.9488683761482,375.5) translate(0 27.6)"/><use xlink:href="#q" transform="matrix(1,0,0,1,245,428.5) translate(0 17.1)"/><use xlink:href="#o" transform="matrix(1,0,0,1,524.9488683761482,428.5) translate(0 17.1)"/><use xlink:href="#r" transform="matrix(1,0,0,1,245,460.5) translate(0 17.1)"/><use xlink:href="#o" transform="matrix(1,0,0,1,524.9488683761482,460.5) translate(0 17.1)"/><use xlink:href="#s" transform="matrix(1,0,0,1,245,492.5) translate(0 17.1)"/><use xlink:href="#o" transform="matrix(1,0,0,1,524.9488683761482,492.5) translate(0 17.1)"/><use xlink:href="#t" transform="matrix(1,0,0,1,245,524.5) translate(0 17.1)"/><use xlink:href="#u" transform="matrix(1,0,0,1,524.9488683761482,524.5) translate(0 17.1)"/><use xlink:href="#v" transform="matrix(1,0,0,1,245,556.5) translate(0 17.1)"/><use xlink:href="#o" transform="matrix(1,0,0,1,524.9488683761482,556.5) translate(0 17.1)"/><use xlink:href="#w" transform="matrix(1,0,0,1,245,588.5) translate(0 17.1)"/><use xlink:href="#u" transform="matrix(1,0,0,1,524.9488683761482,588.5) translate(0 17.1)"/><path d="M1280 507.74c0-2.76 2.24-5 5-5h450c2.76 0 5 2.24 5 5v350c0 2.76-2.24 5-5 5h-450c-2.76 0-5-2.24-5-5z" fill="#fff"/><path d="M1280 507.74c0-2.76 2.24-5 5-5h450c2.76 0 5 2.24 5 5v350c0 2.76-2.24 5-5 5h-450c-2.76 0-5-2.24-5-5zM1280 542.74h460M1340 542.74v320M1540 542.74v320" stroke="#666" stroke-width="5" fill="none"/><use xlink:href="#x" transform="matrix(1,0,0,1,1290,502.7385686459072) translate(181.65123456790124 23.11111111111111)"/><use xlink:href="#y" transform="matrix(1,0,0,1,1345,545.2385686459072) translate(0 17.1)"/><use xlink:href="#o" transform="matrix(1,0,0,1,1545,545.2385686459072) translate(0 17.1)"/><use xlink:href="#z" transform="matrix(1,0,0,1,1345,577.2385686459072) translate(0 17.1)"/><use xlink:href="#o" transform="matrix(1,0,0,1,1545,577.2385686459072) translate(0 17.1)"/><use xlink:href="#A" transform="matrix(1,0,0,1,1345,609.2385686459072) translate(0 17.1)"/><use xlink:href="#o" transform="matrix(1,0,0,1,1545,609.2385686459072) translate(0 17.1)"/><use xlink:href="#B" transform="matrix(1,0,0,1,1345,641.2385686459072) translate(0 17.1)"/><use xlink:href="#u" transform="matrix(1,0,0,1,1545,641.2385686459072) translate(0 17.1)"/><use xlink:href="#C" transform="matrix(1,0,0,1,1345,673.2385686459072) translate(0 17.1)"/><use xlink:href="#o" transform="matrix(1,0,0,1,1545,673.2385686459072) translate(0 17.1)"/><use xlink:href="#D" transform="matrix(1,0,0,1,1345,705.2385686459072) translate(0 17.1)"/><use xlink:href="#o" transform="matrix(1,0,0,1,1545,705.2385686459072) translate(0 17.1)"/><use xlink:href="#E" transform="matrix(1,0,0,1,1345,737.2385686459072) translate(0 17.1)"/><use xlink:href="#o" transform="matrix(1,0,0,1,1545,737.2385686459072) translate(0 17.1)"/><use xlink:href="#F" transform="matrix(1,0,0,1,1345,769.2385686459072) translate(0 17.1)"/><use xlink:href="#o" transform="matrix(1,0,0,1,1545,769.2385686459072) translate(0 17.1)"/><use xlink:href="#G" transform="matrix(1,0,0,1,1345,801.2385686459072) translate(0 17.1)"/><use xlink:href="#H" transform="matrix(1,0,0,1,1545,801.2385686459072) translate(0 17.1)"/><use xlink:href="#I" transform="matrix(1,0,0,1,1545,801.2385686459072) translate(48.9 17.1)"/><use xlink:href="#J" transform="matrix(1,0,0,1,1545,801.2385686459072) translate(69.85 17.1)"/><use xlink:href="#K" transform="matrix(1,0,0,1,1345,833.2385686459072) translate(0 17.1)"/><use xlink:href="#L" transform="matrix(1,0,0,1,1545,833.2385686459072) translate(0 17.1)"/><path d="M120 706.97c0-2.76 2.24-5 5-5h450c2.76 0 5 2.24 5 5v254c0 2.76-2.24 5-5 5H125c-2.76 0-5-2.24-5-5z" fill="#fff"/><path d="M120 706.97c0-2.76 2.24-5 5-5h450c2.76 0 5 2.24 5 5v254c0 2.76-2.24 5-5 5H125c-2.76 0-5-2.24-5-5zM120 741.97h460M180 741.97v224M459.95 741.97v224" stroke="#666" stroke-width="5" fill="none"/><use xlink:href="#M" transform="matrix(1,0,0,1,130,701.9697332695862) translate(175.7530864197531 23.11111111111111)"/><use xlink:href="#N" transform="matrix(1,0,0,1,125,744.4697332695862) translate(13 17.1)"/><use xlink:href="#O" transform="matrix(1,0,0,1,185,744.4697332695862) translate(0 17.1)"/><use xlink:href="#o" transform="matrix(1,0,0,1,464.9488683761482,744.4697332695862) translate(0 17.1)"/><use xlink:href="#P" transform="matrix(1,0,0,1,185,776.4697332695862) translate(0 17.1)"/><use xlink:href="#o" transform="matrix(1,0,0,1,464.9488683761482,776.4697332695862) translate(0 17.1)"/><use xlink:href="#Q" transform="matrix(1,0,0,1,185,808.4697332695862) translate(0 17.1)"/><use xlink:href="#o" transform="matrix(1,0,0,1,464.9488683761482,808.4697332695862) translate(0 17.1)"/><use xlink:href="#q" transform="matrix(1,0,0,1,185,840.4697332695862) translate(0 17.1)"/><use xlink:href="#o" transform="matrix(1,0,0,1,464.9488683761482,840.4697332695862) translate(0 17.1)"/><use xlink:href="#r" transform="matrix(1,0,0,1,185,872.4697332695862) translate(0 17.1)"/><use xlink:href="#o" transform="matrix(1,0,0,1,464.9488683761482,872.4697332695862) translate(0 17.1)"/><use xlink:href="#s" transform="matrix(1,0,0,1,185,904.4697332695862) translate(0 17.1)"/><use xlink:href="#o" transform="matrix(1,0,0,1,464.9488683761482,904.4697332695862) translate(0 17.1)"/><use xlink:href="#t" transform="matrix(1,0,0,1,185,936.4697332695862) translate(0 17.1)"/><use xlink:href="#u" transform="matrix(1,0,0,1,464.9488683761482,936.4697332695862) translate(0 17.1)"/><path d="M720 658.97c0-2.76 2.24-5 5-5h450c2.76 0 5 2.24 5 5v382c0 2.76-2.24 5-5 5H725c-2.76 0-5-2.24-5-5z" fill="#fff"/><path d="M720 658.97c0-2.76 2.24-5 5-5h450c2.76 0 5 2.24 5 5v382c0 2.76-2.24 5-5 5H725c-2.76 0-5-2.24-5-5zM720 693.97h460M780 693.97v352M1059.95 693.97v352" stroke="#666" stroke-width="5" fill="none"/><use xlink:href="#R" transform="matrix(1,0,0,1,730,653.9697332695862) translate(191.97839506172838 23.11111111111111)"/><use xlink:href="#N" transform="matrix(1,0,0,1,725,696.4697332695862) translate(13 17.1)"/><use xlink:href="#S" transform="matrix(1,0,0,1,785,696.4697332695862) translate(0 17.1)"/><use xlink:href="#u" transform="matrix(1,0,0,1,1064.9488683761483,696.4697332695862) translate(0 17.1)"/><use xlink:href="#T" transform="matrix(1,0,0,1,725,728.4697332695862) translate(13.524999999999999 17.1)"/><use xlink:href="#O" transform="matrix(1,0,0,1,785,728.4697332695862) translate(0 17.1)"/><use xlink:href="#o" transform="matrix(1,0,0,1,1064.9488683761483,728.4697332695862) translate(0 17.1)"/><use xlink:href="#U" transform="matrix(1,0,0,1,785,760.4697332695862) translate(0 17.1)"/><use xlink:href="#o" transform="matrix(1,0,0,1,1064.9488683761483,760.4697332695862) translate(0 17.1)"/><use xlink:href="#V" transform="matrix(1,0,0,1,785,792.4697332695862) translate(0 17.1)"/><use xlink:href="#o" transform="matrix(1,0,0,1,1064.9488683761483,792.4697332695862) translate(0 17.1)"/><use xlink:href="#W" transform="matrix(1,0,0,1,785,824.4697332695862) translate(0 17.1)"/><use xlink:href="#o" transform="matrix(1,0,0,1,1064.9488683761483,824.4697332695862) translate(0 17.1)"/><use xlink:href="#s" transform="matrix(1,0,0,1,785,856.4697332695862) translate(0 17.1)"/><use xlink:href="#o" transform="matrix(1,0,0,1,1064.9488683761483,856.4697332695862) translate(0 17.1)"/><use xlink:href="#t" transform="matrix(1,0,0,1,785,888.4697332695862) translate(0 17.1)"/><use xlink:href="#u" transform="matrix(1,0,0,1,1064.9488683761483,888.4697332695862) translate(0 17.1)"/><use xlink:href="#X" transform="matrix(1,0,0,1,785,920.4697332695862) translate(0 17.1)"/><use xlink:href="#Y" transform="matrix(1,0,0,1,1064.9488683761483,920.4697332695862) translate(0 17.1)"/><use xlink:href="#Z" transform="matrix(1,0,0,1,785,952.4697332695862) translate(0 17.1)"/><use xlink:href="#Y" transform="matrix(1,0,0,1,1064.9488683761483,952.4697332695862) translate(0 17.1)"/><use xlink:href="#aa" transform="matrix(1,0,0,1,785,984.4697332695862) translate(0 17.1)"/><use xlink:href="#Y" transform="matrix(1,0,0,1,1064.9488683761483,984.4697332695862) translate(0 17.1)"/><use xlink:href="#ab" transform="matrix(1,0,0,1,785,1016.4697332695862) translate(0 17.1)"/><use xlink:href="#L" transform="matrix(1,0,0,1,1064.9488683761483,1016.4697332695862) translate(0 17.1)"/><path d="M602.5 720.75H645c2.76 0 5-2.24 5-5v-36.78c0-2.76 2.24-5 5-5h25" stroke="#666" stroke-width="5" fill="none"/><path fill="#fff"/><path d="M595 730.75h-5v-20h5z" fill="#666"/><path d="M602.5 723.25h-20v-5h20z" fill="#666"/><path fill="#fff"/><path d="M605 730.75h-5v-20h5zM717.5 666.2l-15.53 7.77 15.53 7.76-2.24 4.48-24.47-12.23 24.46-12.24z" fill="#666"/><path d="M716.38 676.47h-20v-5h20z" fill="#666"/><path d="M696.38 673.97l-.5 3.16-1.43 2.75-2.16 2.16-2.76 1.42-3.16.5-3.16-.5-2.74-1.42-2.17-2.16-1.4-2.75-.52-3.16.5-3.16 1.43-2.74 2.18-2.16 2.74-1.42 3.16-.5 3.16.5 2.75 1.42 2.15 2.16 1.42 2.75.5 3.17z" fill="#fff"/><path d="M690.34 662.08l3.44 1.78 2.7 2.7 1.8 3.46.57 3.55-2.47.4 2.47.4-.57 3.55-1.8 3.45-2.7 2.7-3.44 1.8-3.96.63-3.95-.64-3.45-1.78-2.7-2.7-1.8-3.46-.63-3.95.64-3.95 1.77-3.45 2.7-2.7 3.46-1.8 3.95-.63zm-6.33 4.8l-2.03 1.06-1.62 1.62-1.05 2.04-.4 2.37.4 2.37 1.05 2.04 1.62 1.62 2.04 1.06 2.38.38 2.37-.38 2.04-1.06 1.6-1.62 1.07-2.04.38-2.37-.38-2.37-1.06-2.04-1.6-1.62-2.05-1.06-2.37-.38z" fill="#666"/><path d="M1257.5 522.74H1235c-2.76 0-5 2.24-5 5v141.23c0 2.76-2.24 5-5 5h-5" stroke="#666" stroke-width="5" fill="none"/><path d="M1277.5 514.97l-15.53 7.77 15.53 7.76-2.24 4.47-24.47-12.23 24.46-12.24z" fill="#666"/><path d="M1276.38 525.24h-20v-5h20z" fill="#666"/><path fill="#fff"/><path d="M1258.88 532.74h-5v-20h5zM1209.2 673.97l-24.46 12.24-2.24-4.47 15.53-7.76-15.53-7.76 2.24-4.47z" fill="#666"/><path d="M1203.62 676.47h-20v-5h20z" fill="#666"/><path d="M1223.62 673.97l-.5 3.16-1.43 2.75-2.18 2.16-2.74 1.42-3.16.5-3.16-.5-2.75-1.42-2.15-2.16-1.42-2.75-.5-3.16.5-3.16 1.42-2.74 2.16-2.16 2.76-1.42 3.16-.5 3.16.5 2.74 1.42 2.17 2.16 1.4 2.75.52 3.17z" fill="#fff"/><path d="M1217.57 662.08l3.45 1.78 2.7 2.7 1.8 3.46.57 3.55-2.48.4 2.47.4-.6 3.55-1.77 3.45-2.7 2.7-3.46 1.8-3.95.63-3.96-.64-3.44-1.78-2.7-2.7-1.8-3.46-.63-3.95.62-3.95 1.8-3.45 2.7-2.7 3.44-1.8 3.96-.63zm-6.32 4.8l-2.04 1.06-1.6 1.62-1.07 2.04-.38 2.37.38 2.37 1.06 2.04 1.6 1.62 2.05 1.06 2.37.38 2.37-.38 2.03-1.06 1.62-1.62 1.05-2.04.4-2.37-.4-2.37-1.05-2.04-1.62-1.62-2.04-1.06-2.38-.38z" fill="#666"/><path d="M157.5 298.38h-75c-2.76 0-5 2.24-5 5v414.87c0 1.38 1.12 2.5 2.5 2.5" stroke="#666" stroke-width="5" fill="none"/><path fill="#fff"/><path d="M170 308.38h-5v-20h5z" fill="#666"/><path d="M177.5 300.88h-20v-5h20z" fill="#666"/><path fill="#fff"/><path d="M160 308.38h-5v-20h5zM117.5 713l-15.53 7.75 15.53 7.77-2.24 4.47-24.47-12.25 24.46-12.23z" fill="#666"/><path d="M116.38 723.25h-20v-5h20z" fill="#666"/><path d="M96.38 720.75l-.5 3.16-1.43 2.76-2.16 2.16-2.76 1.42-3.16.5-3.16-.5-2.74-1.42-2.17-2.16-1.4-2.75-.52-3.15.5-3.16 1.43-2.75 2.18-2.17 2.74-1.42 3.16-.5 3.16.5 2.75 1.42 2.15 2.17 1.42 2.74.5 3.15z" fill="#fff"/><path d="M90.34 708.86l3.44 1.78 2.7 2.7 1.8 3.46.57 3.55-2.47.4 2.47.4-.57 3.56-1.8 3.45-2.7 2.72-3.44 1.78-3.96.63-3.95-.63-3.45-1.78-2.7-2.72-1.8-3.44-.63-3.95.64-3.95 1.77-3.45 2.7-2.7 3.46-1.8 3.95-.63zm-6.33 4.8l-2.03 1.06-1.62 1.62-1.05 2.04-.4 2.37.4 2.37 1.05 2.04 1.62 1.62 2.04 1.06 2.38.38 2.37-.38 2.04-1.06 1.6-1.62 1.07-2.04.38-2.37-.38-2.37-1.06-2.04-1.6-1.62-2.05-1.05-2.37-.4z" fill="#666"/><defs><path fill="#b2b2b2" d="M230 0l2-204L168 0h-37L68-204 70 0H24v-248h70l56 185 57-185h69V0h-46" id="ac"/><path fill="#b2b2b2" d="M133-34C117-15 103 5 69 4 32 3 11-16 11-54c-1-60 55-63 116-61 1-26-3-47-28-47-18 1-26 9-28 27l-52-2c7-38 36-58 82-57s74 22 75 68l1 82c-1 14 12 18 25 15v27c-30 8-71 5-69-32zm-48 3c29 0 43-24 42-57-32 0-66-3-65 30 0 17 8 27 23 27" id="ad"/><path fill="#b2b2b2" d="M220-157c-53 9-28 100-34 157h-49v-107c1-27-5-49-29-50C55-147 81-57 75 0H25l-1-190h47c2 12-1 28 3 38 10-53 101-56 108 0 13-22 24-43 59-42 82 1 51 116 57 194h-49v-107c-1-25-5-48-29-50" id="ae"/><path fill="#b2b2b2" d="M135-194c52 0 70 43 70 98 0 56-19 99-73 100-30 1-46-15-58-35L72 0H24l1-261h50v104c11-23 29-37 60-37zM114-30c31 0 40-27 40-66 0-37-7-63-39-63s-41 28-41 65c0 36 8 64 40 64" id="af"/><path fill="#b2b2b2" d="M24-248c120-7 223 5 221 122C244-46 201 0 124 0H24v-248zM76-40c74 7 117-18 117-86 0-67-45-88-117-82v168" id="ag"/><path fill="#b2b2b2" d="M182-130c37 4 62 22 62 59C244 23 116-4 24 0v-248c84 5 203-23 205 63 0 31-19 50-47 55zM76-148c40-3 101 13 101-30 0-44-60-28-101-31v61zm0 110c48-3 116 14 116-37 0-48-69-32-116-35v72" id="ah"/><g id="a"><use transform="matrix(0.07407407407407408,0,0,0.07407407407407408,0,0)" xlink:href="#ac"/><use transform="matrix(0.07407407407407408,0,0,0.07407407407407408,22.148148148148152,0)" xlink:href="#ad"/><use transform="matrix(0.07407407407407408,0,0,0.07407407407407408,36.96296296296297,0)" xlink:href="#ae"/><use transform="matrix(0.07407407407407408,0,0,0.07407407407407408,60.66666666666667,0)" xlink:href="#af"/><use transform="matrix(0.07407407407407408,0,0,0.07407407407407408,76.8888888888889,0)" xlink:href="#ad"/><use transform="matrix(0.07407407407407408,0,0,0.07407407407407408,91.70370370370371,0)" xlink:href="#ag"/><use transform="matrix(0.07407407407407408,0,0,0.07407407407407408,110.88888888888891,0)" xlink:href="#ah"/></g><path fill="#b2b2b2" d="M24 0v-248h195v40H76v63h132v40H76v65h150V0H24" id="ai"/><path fill="#b2b2b2" d="M240-174c0 40-23 61-54 70L253 0h-59l-57-94H76V0H24v-248c93 4 217-23 216 74zM76-134c48-2 112 12 112-38 0-48-66-32-112-35v73" id="aj"/><g id="b"><use transform="matrix(0.07407407407407408,0,0,0.07407407407407408,0,0)" xlink:href="#ai"/><use transform="matrix(0.07407407407407408,0,0,0.07407407407407408,17.77777777777778,0)" xlink:href="#aj"/></g><path fill="#b2b2b2" d="M25-224v-37h50v37H25zM25 0v-190h50V0H25" id="ak"/><path fill="#b2b2b2" d="M195-6C206 82 75 100 31 46c-4-6-6-13-8-21l49-6c3 16 16 24 34 25 40 0 42-37 40-79-11 22-30 35-61 35-53 0-70-43-70-97 0-56 18-96 73-97 30 0 46 14 59 34l2-30h47zm-90-29c32 0 41-27 41-63 0-35-9-62-40-62-32 0-39 29-40 63 0 36 9 62 39 62" id="al"/><path fill="#b2b2b2" d="M135-150c-39-12-60 13-60 57V0H25l-1-190h47c2 13-1 29 3 40 6-28 27-53 61-41v41" id="am"/><g id="c"><use transform="matrix(0.07407407407407408,0,0,0.07407407407407408,0,0)" xlink:href="#ag"/><use transform="matrix(0.07407407407407408,0,0,0.07407407407407408,19.185185185185187,0)" xlink:href="#ak"/><use transform="matrix(0.07407407407407408,0,0,0.07407407407407408,26.592592592592595,0)" xlink:href="#ad"/><use transform="matrix(0.07407407407407408,0,0,0.07407407407407408,41.40740740740741,0)" xlink:href="#al"/><use transform="matrix(0.07407407407407408,0,0,0.07407407407407408,57.62962962962964,0)" xlink:href="#am"/><use transform="matrix(0.07407407407407408,0,0,0.07407407407407408,68,0)" xlink:href="#ad"/><use transform="matrix(0.07407407407407408,0,0,0.07407407407407408,82.81481481481481,0)" xlink:href="#ae"/></g><path fill="#b2b2b2" d="M240 0l2-218c-23 76-54 145-80 218h-23L58-218 59 0H30v-248h44l77 211c21-75 51-140 76-211h43V0h-30" id="an"/><path fill="#b2b2b2" d="M141-36C126-15 110 5 73 4 37 3 15-17 15-53c-1-64 63-63 125-63 3-35-9-54-41-54-24 1-41 7-42 31l-33-3c5-37 33-52 76-52 45 0 72 20 72 64v82c-1 20 7 32 28 27v20c-31 9-61-2-59-35zM48-53c0 20 12 33 32 33 41-3 63-29 60-74-43 2-92-5-92 41" id="ao"/><path fill="#b2b2b2" d="M210-169c-67 3-38 105-44 169h-31v-121c0-29-5-50-35-48C34-165 62-65 56 0H25l-1-190h30c1 10-1 24 2 32 10-44 99-50 107 0 11-21 27-35 58-36 85-2 47 119 55 194h-31v-121c0-29-5-49-35-48" id="ap"/><path fill="#b2b2b2" d="M115-194c53 0 69 39 70 98 0 66-23 100-70 100C84 3 66-7 56-30L54 0H23l1-261h32v101c10-23 28-34 59-34zm-8 174c40 0 45-34 45-75 0-40-5-75-45-74-42 0-51 32-51 76 0 43 10 73 51 73" id="aq"/><g id="d"><use transform="matrix(0.04320987654320988,0,0,0.04320987654320988,0,0)" xlink:href="#an"/><use transform="matrix(0.04320987654320988,0,0,0.04320987654320988,12.919753086419755,0)" xlink:href="#ao"/><use transform="matrix(0.04320987654320988,0,0,0.04320987654320988,21.56172839506173,0)" xlink:href="#ap"/><use transform="matrix(0.04320987654320988,0,0,0.04320987654320988,34.48148148148149,0)" xlink:href="#aq"/><use transform="matrix(0.04320987654320988,0,0,0.04320987654320988,43.12345679012346,0)" xlink:href="#ao"/></g><path fill="#b2b2b2" d="M30-248c118-7 216 8 213 122C240-48 200 0 122 0H30v-248zM63-27c89 8 146-16 146-99s-60-101-146-95v194" id="ar"/><path fill="#b2b2b2" d="M59-47c-2 24 18 29 38 22v24C64 9 27 4 27-40v-127H5v-23h24l9-43h21v43h35v23H59v120" id="as"/><path fill="#b2b2b2" d="M135-143c-3-34-86-38-87 0 15 53 115 12 119 90S17 21 10-45l28-5c4 36 97 45 98 0-10-56-113-15-118-90-4-57 82-63 122-42 12 7 21 19 24 35" id="at"/><path fill="#b2b2b2" d="M100-194c63 0 86 42 84 106H49c0 40 14 67 53 68 26 1 43-12 49-29l28 8c-11 28-37 45-77 45C44 4 14-33 15-96c1-61 26-98 85-98zm52 81c6-60-76-77-97-28-3 7-6 17-6 28h103" id="au"/><g id="e"><use transform="matrix(0.04320987654320988,0,0,0.04320987654320988,0,0)" xlink:href="#ar"/><use transform="matrix(0.04320987654320988,0,0,0.04320987654320988,11.19135802469136,0)" xlink:href="#ao"/><use transform="matrix(0.04320987654320988,0,0,0.04320987654320988,19.833333333333336,0)" xlink:href="#as"/><use transform="matrix(0.04320987654320988,0,0,0.04320987654320988,24.154320987654323,0)" xlink:href="#ao"/><use transform="matrix(0.04320987654320988,0,0,0.04320987654320988,32.7962962962963,0)" xlink:href="#aq"/><use transform="matrix(0.04320987654320988,0,0,0.04320987654320988,41.43827160493827,0)" xlink:href="#ao"/><use transform="matrix(0.04320987654320988,0,0,0.04320987654320988,50.08024691358024,0)" xlink:href="#at"/><use transform="matrix(0.04320987654320988,0,0,0.04320987654320988,57.85802469135802,0)" xlink:href="#au"/></g><path fill="#b2b2b2" d="M185-189c-5-48-123-54-124 2 14 75 158 14 163 119 3 78-121 87-175 55-17-10-28-26-33-46l33-7c5 56 141 63 141-1 0-78-155-14-162-118-5-82 145-84 179-34 5 7 8 16 11 25" id="av"/><path fill="#b2b2b2" d="M179-190L93 31C79 59 56 82 12 73V49c39 6 53-20 64-50L1-190h34L92-34l54-156h33" id="aw"/><g id="f"><use transform="matrix(0.04320987654320988,0,0,0.04320987654320988,0,0)" xlink:href="#av"/><use transform="matrix(0.04320987654320988,0,0,0.04320987654320988,10.370370370370372,0)" xlink:href="#aw"/><use transform="matrix(0.04320987654320988,0,0,0.04320987654320988,18.148148148148152,0)" xlink:href="#at"/><use transform="matrix(0.04320987654320988,0,0,0.04320987654320988,25.925925925925927,0)" xlink:href="#as"/><use transform="matrix(0.04320987654320988,0,0,0.04320987654320988,30.24691358024692,0)" xlink:href="#au"/><use transform="matrix(0.04320987654320988,0,0,0.04320987654320988,38.88888888888889,0)" xlink:href="#ap"/><use transform="matrix(0.04320987654320988,0,0,0.04320987654320988,51.808641975308646,0)" xlink:href="#at"/></g><path fill="#b2b2b2" d="M32 76v-337h29V76H32" id="ax"/><use transform="matrix(0.04320987654320988,0,0,0.04320987654320988,0,0)" xlink:href="#ax" id="g"/><path fill="#b2b2b2" d="M63-220v92h138v28H63V0H30v-248h175v28H63" id="ay"/><path fill="#b2b2b2" d="M114-163C36-179 61-72 57 0H25l-1-190h30c1 12-1 29 2 39 6-27 23-49 58-41v29" id="az"/><path fill="#b2b2b2" d="M84 4C-5 8 30-112 23-190h32v120c0 31 7 50 39 49 72-2 45-101 50-169h31l1 190h-30c-1-10 1-25-2-33-11 22-28 36-60 37" id="aA"/><g id="h"><use transform="matrix(0.04320987654320988,0,0,0.04320987654320988,0,0)" xlink:href="#ay"/><use transform="matrix(0.04320987654320988,0,0,0.04320987654320988,9.462962962962964,0)" xlink:href="#au"/><use transform="matrix(0.04320987654320988,0,0,0.04320987654320988,18.10493827160494,0)" xlink:href="#aq"/><use transform="matrix(0.04320987654320988,0,0,0.04320987654320988,26.746913580246915,0)" xlink:href="#az"/><use transform="matrix(0.04320987654320988,0,0,0.04320987654320988,31.888888888888893,0)" xlink:href="#aA"/><use transform="matrix(0.04320987654320988,0,0,0.04320987654320988,40.53086419753087,0)" xlink:href="#ao"/><use transform="matrix(0.04320987654320988,0,0,0.04320987654320988,49.17283950617284,0)" xlink:href="#az"/><use transform="matrix(0.04320987654320988,0,0,0.04320987654320988,54.314814814814824,0)" xlink:href="#aw"/></g><path fill="#b2b2b2" d="M27 0v-27h64v-190l-56 39v-29l58-41h29v221h61V0H27" id="aB"/><path fill="#b2b2b2" d="M134-131c28 9 52 24 51 62-1 50-34 73-85 73S17-19 16-69c0-36 21-54 49-61-75-25-45-126 34-121 46 3 78 18 79 63 0 33-17 51-44 57zm-34-11c31 1 46-15 46-44 0-28-17-43-47-42-29 0-46 13-45 42 1 28 16 44 46 44zm1 122c35 0 51-18 51-52 0-30-18-46-53-46-33 0-51 17-51 47 0 34 19 51 53 51" id="aC"/><path fill="#b2b2b2" d="M68-38c1 34 0 65-14 84H32c9-13 17-26 17-46H33v-38h35" id="aD"/><g id="i"><use transform="matrix(0.04320987654320988,0,0,0.04320987654320988,0,0)" xlink:href="#aB"/><use transform="matrix(0.04320987654320988,0,0,0.04320987654320988,8.641975308641976,0)" xlink:href="#aC"/><use transform="matrix(0.04320987654320988,0,0,0.04320987654320988,17.283950617283953,0)" xlink:href="#aD"/></g><path fill="#b2b2b2" d="M101-251c82-7 93 87 43 132L82-64C71-53 59-42 53-27h129V0H18c2-99 128-94 128-182 0-28-16-43-45-43s-46 15-49 41l-32-3c6-41 34-60 81-64" id="aE"/><path fill="#b2b2b2" d="M101-251c68 0 85 55 85 127S166 4 100 4C33 4 14-52 14-124c0-73 17-127 87-127zm-1 229c47 0 54-49 54-102s-4-102-53-102c-51 0-55 48-55 102 0 53 5 102 54 102" id="aF"/><path fill="#b2b2b2" d="M99-251c64 0 84 50 84 122C183-37 130 33 47-8c-14-7-20-23-25-40l30-5c6 39 69 39 84 7 9-19 16-44 16-74-10 22-31 35-62 35-49 0-73-33-73-83 0-54 28-83 82-83zm-1 141c31-1 51-18 51-49 0-36-14-67-51-67-34 0-49 23-49 58 0 34 15 58 49 58" id="aG"/><g id="j"><use transform="matrix(0.04320987654320988,0,0,0.04320987654320988,0,0)" xlink:href="#aE"/><use transform="matrix(0.04320987654320988,0,0,0.04320987654320988,8.641975308641976,0)" xlink:href="#aF"/><use transform="matrix(0.04320987654320988,0,0,0.04320987654320988,17.283950617283953,0)" xlink:href="#aB"/><use transform="matrix(0.04320987654320988,0,0,0.04320987654320988,25.925925925925927,0)" xlink:href="#aG"/></g><path fill="#666" d="M160-131c35 5 61 23 61 61C221 17 115-2 30 0v-248c76 3 177-17 177 60 0 33-19 50-47 57zm-97-11c50-1 110 9 110-42 0-47-63-36-110-37v79zm0 115c55-2 124 14 124-45 0-56-70-42-124-44v89" id="aH"/><path fill="#666" d="M232-93c-1 65-40 97-104 97C67 4 28-28 28-90v-158h33c8 89-33 224 67 224 102 0 64-133 71-224h33v155" id="aI"/><path fill="#666" d="M185-189c-5-48-123-54-124 2 14 75 158 14 163 119 3 78-121 87-175 55-17-10-28-26-33-46l33-7c5 56 141 63 141-1 0-78-155-14-162-118-5-82 145-84 179-34 5 7 8 16 11 25" id="aJ"/><path fill="#666" d="M33 0v-248h34V0H33" id="aK"/><path fill="#666" d="M190 0L58-211 59 0H30v-248h39L202-35l-2-213h31V0h-41" id="aL"/><path fill="#666" d="M30 0v-248h187v28H63v79h144v27H63v87h162V0H30" id="aM"/><g id="k"><use transform="matrix(0.04320987654320988,0,0,0.04320987654320988,0,0)" xlink:href="#aH"/><use transform="matrix(0.04320987654320988,0,0,0.04320987654320988,10.370370370370372,0)" xlink:href="#aI"/><use transform="matrix(0.04320987654320988,0,0,0.04320987654320988,21.56172839506173,0)" xlink:href="#aJ"/><use transform="matrix(0.04320987654320988,0,0,0.04320987654320988,31.9320987654321,0)" xlink:href="#aK"/><use transform="matrix(0.04320987654320988,0,0,0.04320987654320988,36.25308641975309,0)" xlink:href="#aL"/><use transform="matrix(0.04320987654320988,0,0,0.04320987654320988,47.44444444444445,0)" xlink:href="#aM"/><use transform="matrix(0.04320987654320988,0,0,0.04320987654320988,57.814814814814824,0)" xlink:href="#aJ"/><use transform="matrix(0.04320987654320988,0,0,0.04320987654320988,68.18518518518519,0)" xlink:href="#aJ"/></g><path d="M30-248c87 1 191-15 191 75 0 78-77 80-158 76V0H30v-248zm33 125c57 0 124 11 124-50 0-59-68-47-124-48v98" id="aN"/><path d="M194 0L95-120 63-95V0H30v-248h33v124l119-124h40L117-140 236 0h-42" id="aO"/><path d="M68-38c1 34 0 65-14 84H32c9-13 17-26 17-46H33v-38h35" id="aP"/><g id="l"><use transform="matrix(0.05,0,0,0.05,0,0)" xlink:href="#aN"/><use transform="matrix(0.05,0,0,0.05,12,0)" xlink:href="#aO"/><use transform="matrix(0.05,0,0,0.05,24,0)" xlink:href="#aP"/></g><path d="M63-220v92h138v28H63V0H30v-248h175v28H63" id="aQ"/><g id="m"><use transform="matrix(0.05,0,0,0.05,0,0)" xlink:href="#aQ"/><use transform="matrix(0.05,0,0,0.05,10.950000000000001,0)" xlink:href="#aO"/></g><path d="M115-194c53 0 69 39 70 98 0 66-23 100-70 100C84 3 66-7 56-30L54 0H23l1-261h32v101c10-23 28-34 59-34zm-8 174c40 0 45-34 45-75 0-40-5-75-45-74-42 0-51 32-51 76 0 43 10 73 51 73" id="aR"/><path d="M84 4C-5 8 30-112 23-190h32v120c0 31 7 50 39 49 72-2 45-101 50-169h31l1 190h-30c-1-10 1-25-2-33-11 22-28 36-60 37" id="aS"/><path d="M135-143c-3-34-86-38-87 0 15 53 115 12 119 90S17 21 10-45l28-5c4 36 97 45 98 0-10-56-113-15-118-90-4-57 82-63 122-42 12 7 21 19 24 35" id="aT"/><path d="M24-231v-30h32v30H24zM24 0v-190h32V0H24" id="aU"/><path d="M117-194c89-4 53 116 60 194h-32v-121c0-31-8-49-39-48C34-167 62-67 57 0H25l-1-190h30c1 10-1 24 2 32 11-22 29-35 61-36" id="aV"/><path d="M100-194c63 0 86 42 84 106H49c0 40 14 67 53 68 26 1 43-12 49-29l28 8c-11 28-37 45-77 45C44 4 14-33 15-96c1-61 26-98 85-98zm52 81c6-60-76-77-97-28-3 7-6 17-6 28h103" id="aW"/><path d="M-5 72V49h209v23H-5" id="aX"/><path d="M141-36C126-15 110 5 73 4 37 3 15-17 15-53c-1-64 63-63 125-63 3-35-9-54-41-54-24 1-41 7-42 31l-33-3c5-37 33-52 76-52 45 0 72 20 72 64v82c-1 20 7 32 28 27v20c-31 9-61-2-59-35zM48-53c0 20 12 33 32 33 41-3 63-29 60-74-43 2-92-5-92 41" id="aY"/><path d="M210-169c-67 3-38 105-44 169h-31v-121c0-29-5-50-35-48C34-165 62-65 56 0H25l-1-190h30c1 10-1 24 2 32 10-44 99-50 107 0 11-21 27-35 58-36 85-2 47 119 55 194h-31v-121c0-29-5-49-35-48" id="aZ"/><g id="n"><use transform="matrix(0.05,0,0,0.05,0,0)" xlink:href="#aR"/><use transform="matrix(0.05,0,0,0.05,10,0)" xlink:href="#aS"/><use transform="matrix(0.05,0,0,0.05,20,0)" xlink:href="#aT"/><use transform="matrix(0.05,0,0,0.05,29,0)" xlink:href="#aU"/><use transform="matrix(0.05,0,0,0.05,32.95,0)" xlink:href="#aV"/><use transform="matrix(0.05,0,0,0.05,42.95,0)" xlink:href="#aW"/><use transform="matrix(0.05,0,0,0.05,52.95,0)" xlink:href="#aT"/><use transform="matrix(0.05,0,0,0.05,61.95,0)" xlink:href="#aT"/><use transform="matrix(0.05,0,0,0.05,70.95,0)" xlink:href="#aX"/><use transform="matrix(0.05,0,0,0.05,80.95,0)" xlink:href="#aV"/><use transform="matrix(0.05,0,0,0.05,90.95,0)" xlink:href="#aY"/><use transform="matrix(0.05,0,0,0.05,100.95,0)" xlink:href="#aZ"/><use transform="matrix(0.05,0,0,0.05,115.9,0)" xlink:href="#aW"/></g><path d="M59-47c-2 24 18 29 38 22v24C64 9 27 4 27-40v-127H5v-23h24l9-43h21v43h35v23H59v120" id="ba"/><path d="M114-163C36-179 61-72 57 0H25l-1-190h30c1 12-1 29 2 39 6-27 23-49 58-41v29" id="bb"/><path d="M177-190C167-65 218 103 67 71c-23-6-38-20-44-43l32-5c15 47 100 32 89-28v-30C133-14 115 1 83 1 29 1 15-40 15-95c0-56 16-97 71-98 29-1 48 16 59 35 1-10 0-23 2-32h30zM94-22c36 0 50-32 50-73 0-42-14-75-50-75-39 0-46 34-46 75s6 73 46 73" id="bc"/><g id="o"><use transform="matrix(0.05,0,0,0.05,0,0)" xlink:href="#aT"/><use transform="matrix(0.05,0,0,0.05,9,0)" xlink:href="#ba"/><use transform="matrix(0.05,0,0,0.05,14,0)" xlink:href="#bb"/><use transform="matrix(0.05,0,0,0.05,19.95,0)" xlink:href="#aU"/><use transform="matrix(0.05,0,0,0.05,23.9,0)" xlink:href="#aV"/><use transform="matrix(0.05,0,0,0.05,33.9,0)" xlink:href="#bc"/></g><path d="M85-194c31 0 48 13 60 33l-1-100h32l1 261h-30c-2-10 0-23-3-31C134-8 116 4 85 4 32 4 16-35 15-94c0-66 23-100 70-100zm9 24c-40 0-46 34-46 75 0 40 6 74 45 74 42 0 51-32 51-76 0-42-9-74-50-73" id="bd"/><g id="p"><use transform="matrix(0.05,0,0,0.05,0,0)" xlink:href="#bd"/><use transform="matrix(0.05,0,0,0.05,10,0)" xlink:href="#aS"/><use transform="matrix(0.05,0,0,0.05,20,0)" xlink:href="#aV"/><use transform="matrix(0.05,0,0,0.05,30,0)" xlink:href="#aT"/><use transform="matrix(0.05,0,0,0.05,39,0)" xlink:href="#aX"/><use transform="matrix(0.05,0,0,0.05,49,0)" xlink:href="#aV"/><use transform="matrix(0.05,0,0,0.05,59,0)" xlink:href="#aS"/><use transform="matrix(0.05,0,0,0.05,69,0)" xlink:href="#aZ"/><use transform="matrix(0.05,0,0,0.05,83.95,0)" xlink:href="#aR"/><use transform="matrix(0.05,0,0,0.05,93.95,0)" xlink:href="#aW"/><use transform="matrix(0.05,0,0,0.05,103.95,0)" xlink:href="#bb"/></g><g id="q"><use transform="matrix(0.05,0,0,0.05,0,0)" xlink:href="#aT"/><use transform="matrix(0.05,0,0,0.05,9,0)" xlink:href="#ba"/><use transform="matrix(0.05,0,0,0.05,14,0)" xlink:href="#bb"/><use transform="matrix(0.05,0,0,0.05,19.95,0)" xlink:href="#aW"/><use transform="matrix(0.05,0,0,0.05,29.950000000000003,0)" xlink:href="#aW"/><use transform="matrix(0.05,0,0,0.05,39.95,0)" xlink:href="#ba"/></g><path d="M96-169c-40 0-48 33-48 73s9 75 48 75c24 0 41-14 43-38l32 2c-6 37-31 61-74 61-59 0-76-41-82-99-10-93 101-131 147-64 4 7 5 14 7 22l-32 3c-4-21-16-35-41-35" id="be"/><path d="M179-190L93 31C79 59 56 82 12 73V49c39 6 53-20 64-50L1-190h34L92-34l54-156h33" id="bf"/><g id="r"><use transform="matrix(0.05,0,0,0.05,0,0)" xlink:href="#be"/><use transform="matrix(0.05,0,0,0.05,9,0)" xlink:href="#aU"/><use transform="matrix(0.05,0,0,0.05,12.949999999999998,0)" xlink:href="#ba"/><use transform="matrix(0.05,0,0,0.05,17.95,0)" xlink:href="#bf"/></g><path d="M9 0v-24l116-142H16v-24h144v24L44-24h123V0H9" id="bg"/><path d="M115-194c55 1 70 41 70 98S169 2 115 4C84 4 66-9 55-30l1 105H24l-1-265h31l2 30c10-21 28-34 59-34zm-8 174c40 0 45-34 45-75s-6-73-45-74c-42 0-51 32-51 76 0 43 10 73 51 73" id="bh"/><path d="M100-194c62-1 85 37 85 99 1 63-27 99-86 99S16-35 15-95c0-66 28-99 85-99zM99-20c44 1 53-31 53-75 0-43-8-75-51-75s-53 32-53 75 10 74 51 75" id="bi"/><g id="s"><use transform="matrix(0.05,0,0,0.05,0,0)" xlink:href="#bg"/><use transform="matrix(0.05,0,0,0.05,9,0)" xlink:href="#aU"/><use transform="matrix(0.05,0,0,0.05,12.949999999999998,0)" xlink:href="#bh"/><use transform="matrix(0.05,0,0,0.05,22.95,0)" xlink:href="#aX"/><use transform="matrix(0.05,0,0,0.05,32.95,0)" xlink:href="#be"/><use transform="matrix(0.05,0,0,0.05,41.95,0)" xlink:href="#bi"/><use transform="matrix(0.05,0,0,0.05,51.95,0)" xlink:href="#bd"/><use transform="matrix(0.05,0,0,0.05,61.95,0)" xlink:href="#aW"/></g><path d="M106-169C34-169 62-67 57 0H25v-261h32l-1 103c12-21 28-36 61-36 89 0 53 116 60 194h-32v-121c2-32-8-49-39-48" id="bj"/><g id="t"><use transform="matrix(0.05,0,0,0.05,0,0)" xlink:href="#bh"/><use transform="matrix(0.05,0,0,0.05,10,0)" xlink:href="#bj"/><use transform="matrix(0.05,0,0,0.05,20,0)" xlink:href="#bi"/><use transform="matrix(0.05,0,0,0.05,30,0)" xlink:href="#aV"/><use transform="matrix(0.05,0,0,0.05,40,0)" xlink:href="#aW"/><use transform="matrix(0.05,0,0,0.05,50,0)" xlink:href="#aX"/><use transform="matrix(0.05,0,0,0.05,60,0)" xlink:href="#aV"/><use transform="matrix(0.05,0,0,0.05,70,0)" xlink:href="#aS"/><use transform="matrix(0.05,0,0,0.05,80,0)" xlink:href="#aZ"/><use transform="matrix(0.05,0,0,0.05,94.95,0)" xlink:href="#aR"/><use transform="matrix(0.05,0,0,0.05,104.95,0)" xlink:href="#aW"/><use transform="matrix(0.05,0,0,0.05,114.95,0)" xlink:href="#bb"/></g><g id="u"><use transform="matrix(0.05,0,0,0.05,0,0)" xlink:href="#aV"/><use transform="matrix(0.05,0,0,0.05,10,0)" xlink:href="#aS"/><use transform="matrix(0.05,0,0,0.05,20,0)" xlink:href="#aZ"/><use transform="matrix(0.05,0,0,0.05,34.95,0)" xlink:href="#aR"/><use transform="matrix(0.05,0,0,0.05,44.95,0)" xlink:href="#aW"/><use transform="matrix(0.05,0,0,0.05,54.95,0)" xlink:href="#bb"/></g><g id="v"><use transform="matrix(0.05,0,0,0.05,0,0)" xlink:href="#aR"/><use transform="matrix(0.05,0,0,0.05,10,0)" xlink:href="#aS"/><use transform="matrix(0.05,0,0,0.05,20,0)" xlink:href="#aT"/><use transform="matrix(0.05,0,0,0.05,29,0)" xlink:href="#aU"/><use transform="matrix(0.05,0,0,0.05,32.95,0)" xlink:href="#aV"/><use transform="matrix(0.05,0,0,0.05,42.95,0)" xlink:href="#aW"/><use transform="matrix(0.05,0,0,0.05,52.95,0)" xlink:href="#aT"/><use transform="matrix(0.05,0,0,0.05,61.95,0)" xlink:href="#aT"/><use transform="matrix(0.05,0,0,0.05,70.95,0)" xlink:href="#aX"/><use transform="matrix(0.05,0,0,0.05,80.95,0)" xlink:href="#ba"/><use transform="matrix(0.05,0,0,0.05,85.95,0)" xlink:href="#bf"/><use transform="matrix(0.05,0,0,0.05,94.95,0)" xlink:href="#bh"/><use transform="matrix(0.05,0,0,0.05,104.95,0)" xlink:href="#aW"/></g><path d="M101-234c-31-9-42 10-38 44h38v23H63V0H32v-167H5v-23h27c-7-52 17-82 69-68v24" id="bk"/><g id="w"><use transform="matrix(0.05,0,0,0.05,0,0)" xlink:href="#aV"/><use transform="matrix(0.05,0,0,0.05,10,0)" xlink:href="#aS"/><use transform="matrix(0.05,0,0,0.05,20,0)" xlink:href="#aZ"/><use transform="matrix(0.05,0,0,0.05,34.95,0)" xlink:href="#aR"/><use transform="matrix(0.05,0,0,0.05,44.95,0)" xlink:href="#aW"/><use transform="matrix(0.05,0,0,0.05,54.95,0)" xlink:href="#bb"/><use transform="matrix(0.05,0,0,0.05,60.900000000000006,0)" xlink:href="#aX"/><use transform="matrix(0.05,0,0,0.05,70.9,0)" xlink:href="#bi"/><use transform="matrix(0.05,0,0,0.05,80.9,0)" xlink:href="#bk"/><use transform="matrix(0.05,0,0,0.05,85.9,0)" xlink:href="#aX"/><use transform="matrix(0.05,0,0,0.05,95.9,0)" xlink:href="#be"/><use transform="matrix(0.05,0,0,0.05,104.9,0)" xlink:href="#aS"/><use transform="matrix(0.05,0,0,0.05,114.9,0)" xlink:href="#aT"/><use transform="matrix(0.05,0,0,0.05,123.9,0)" xlink:href="#ba"/><use transform="matrix(0.05,0,0,0.05,128.9,0)" xlink:href="#bi"/><use transform="matrix(0.05,0,0,0.05,138.9,0)" xlink:href="#aZ"/><use transform="matrix(0.05,0,0,0.05,153.85,0)" xlink:href="#aW"/><use transform="matrix(0.05,0,0,0.05,163.85,0)" xlink:href="#bb"/><use transform="matrix(0.05,0,0,0.05,169.79999999999998,0)" xlink:href="#aT"/></g><path fill="#666" d="M30-248c87 1 191-15 191 75 0 78-77 80-158 76V0H30v-248zm33 125c57 0 124 11 124-50 0-59-68-47-124-48v98" id="bl"/><path fill="#666" d="M233-177c-1 41-23 64-60 70L243 0h-38l-65-103H63V0H30v-248c88 3 205-21 203 71zM63-129c60-2 137 13 137-47 0-61-80-42-137-45v92" id="bm"/><path fill="#666" d="M140-251c81 0 123 46 123 126C263-46 219 4 140 4 59 4 17-45 17-125s42-126 123-126zm0 227c63 0 89-41 89-101s-29-99-89-99c-61 0-89 39-89 99S79-25 140-24" id="bn"/><path fill="#666" d="M30-248c118-7 216 8 213 122C240-48 200 0 122 0H30v-248zM63-27c89 8 146-16 146-99s-60-101-146-95v194" id="bo"/><path fill="#666" d="M212-179c-10-28-35-45-73-45-59 0-87 40-87 99 0 60 29 101 89 101 43 0 62-24 78-52l27 14C228-24 195 4 139 4 59 4 22-46 18-125c-6-104 99-153 187-111 19 9 31 26 39 46" id="bp"/><path fill="#666" d="M127-220V0H93v-220H8v-28h204v28h-85" id="bq"/><g id="x"><use transform="matrix(0.04320987654320988,0,0,0.04320987654320988,0,0)" xlink:href="#bl"/><use transform="matrix(0.04320987654320988,0,0,0.04320987654320988,10.370370370370372,0)" xlink:href="#bm"/><use transform="matrix(0.04320987654320988,0,0,0.04320987654320988,21.56172839506173,0)" xlink:href="#bn"/><use transform="matrix(0.04320987654320988,0,0,0.04320987654320988,33.660493827160494,0)" xlink:href="#bo"/><use transform="matrix(0.04320987654320988,0,0,0.04320987654320988,44.851851851851855,0)" xlink:href="#aI"/><use transform="matrix(0.04320987654320988,0,0,0.04320987654320988,56.043209876543216,0)" xlink:href="#bp"/><use transform="matrix(0.04320987654320988,0,0,0.04320987654320988,67.23456790123457,0)" xlink:href="#bq"/></g><g id="y"><use transform="matrix(0.05,0,0,0.05,0,0)" xlink:href="#bh"/><use transform="matrix(0.05,0,0,0.05,10,0)" xlink:href="#bb"/><use transform="matrix(0.05,0,0,0.05,15.949999999999998,0)" xlink:href="#bi"/><use transform="matrix(0.05,0,0,0.05,25.950000000000003,0)" xlink:href="#bd"/><use transform="matrix(0.05,0,0,0.05,35.95,0)" xlink:href="#aS"/><use transform="matrix(0.05,0,0,0.05,45.95,0)" xlink:href="#be"/><use transform="matrix(0.05,0,0,0.05,54.95,0)" xlink:href="#ba"/><use transform="matrix(0.05,0,0,0.05,59.95,0)" xlink:href="#aX"/><use transform="matrix(0.05,0,0,0.05,69.95,0)" xlink:href="#aU"/><use transform="matrix(0.05,0,0,0.05,73.9,0)" xlink:href="#bd"/></g><path d="M24 0v-261h32V0H24" id="br"/><g id="z"><use transform="matrix(0.05,0,0,0.05,0,0)" xlink:href="#bh"/><use transform="matrix(0.05,0,0,0.05,10,0)" xlink:href="#bb"/><use transform="matrix(0.05,0,0,0.05,15.949999999999998,0)" xlink:href="#bi"/><use transform="matrix(0.05,0,0,0.05,25.950000000000003,0)" xlink:href="#bd"/><use transform="matrix(0.05,0,0,0.05,35.95,0)" xlink:href="#aS"/><use transform="matrix(0.05,0,0,0.05,45.95,0)" xlink:href="#be"/><use transform="matrix(0.05,0,0,0.05,54.95,0)" xlink:href="#ba"/><use transform="matrix(0.05,0,0,0.05,59.95,0)" xlink:href="#aX"/><use transform="matrix(0.05,0,0,0.05,69.95,0)" xlink:href="#br"/><use transform="matrix(0.05,0,0,0.05,73.9,0)" xlink:href="#aY"/><use transform="matrix(0.05,0,0,0.05,83.9,0)" xlink:href="#aR"/><use transform="matrix(0.05,0,0,0.05,93.9,0)" xlink:href="#aW"/><use transform="matrix(0.05,0,0,0.05,103.9,0)" xlink:href="#br"/></g><g id="A"><use transform="matrix(0.05,0,0,0.05,0,0)" xlink:href="#bh"/><use transform="matrix(0.05,0,0,0.05,10,0)" xlink:href="#bb"/><use transform="matrix(0.05,0,0,0.05,15.949999999999998,0)" xlink:href="#bi"/><use transform="matrix(0.05,0,0,0.05,25.950000000000003,0)" xlink:href="#bd"/><use transform="matrix(0.05,0,0,0.05,35.95,0)" xlink:href="#aS"/><use transform="matrix(0.05,0,0,0.05,45.95,0)" xlink:href="#be"/><use transform="matrix(0.05,0,0,0.05,54.95,0)" xlink:href="#ba"/><use transform="matrix(0.05,0,0,0.05,59.95,0)" xlink:href="#aX"/><use transform="matrix(0.05,0,0,0.05,69.95,0)" xlink:href="#be"/><use transform="matrix(0.05,0,0,0.05,78.95,0)" xlink:href="#aY"/><use transform="matrix(0.05,0,0,0.05,88.95,0)" xlink:href="#ba"/><use transform="matrix(0.05,0,0,0.05,93.95,0)" xlink:href="#aW"/><use transform="matrix(0.05,0,0,0.05,103.95,0)" xlink:href="#bc"/><use transform="matrix(0.05,0,0,0.05,113.95,0)" xlink:href="#bi"/><use transform="matrix(0.05,0,0,0.05,123.95,0)" xlink:href="#bb"/><use transform="matrix(0.05,0,0,0.05,129.9,0)" xlink:href="#bf"/></g><path d="M145-31C134-9 116 4 85 4 32 4 16-35 15-94c0-59 17-99 70-100 32-1 48 14 60 33 0-11-1-24 2-32h30l-1 268h-32zM93-21c41 0 51-33 51-76s-8-73-50-73c-40 0-46 35-46 75s5 74 45 74" id="bs"/><g id="B"><use transform="matrix(0.05,0,0,0.05,0,0)" xlink:href="#bs"/><use transform="matrix(0.05,0,0,0.05,10,0)" xlink:href="#aS"/><use transform="matrix(0.05,0,0,0.05,20,0)" xlink:href="#aY"/><use transform="matrix(0.05,0,0,0.05,30,0)" xlink:href="#aV"/><use transform="matrix(0.05,0,0,0.05,40,0)" xlink:href="#ba"/><use transform="matrix(0.05,0,0,0.05,45,0)" xlink:href="#aU"/><use transform="matrix(0.05,0,0,0.05,48.95,0)" xlink:href="#ba"/><use transform="matrix(0.05,0,0,0.05,53.95,0)" xlink:href="#bf"/></g><g id="C"><use transform="matrix(0.05,0,0,0.05,0,0)" xlink:href="#aR"/><use transform="matrix(0.05,0,0,0.05,10,0)" xlink:href="#aS"/><use transform="matrix(0.05,0,0,0.05,20,0)" xlink:href="#aT"/><use transform="matrix(0.05,0,0,0.05,29,0)" xlink:href="#aU"/><use transform="matrix(0.05,0,0,0.05,32.95,0)" xlink:href="#aV"/><use transform="matrix(0.05,0,0,0.05,42.95,0)" xlink:href="#aW"/><use transform="matrix(0.05,0,0,0.05,52.95,0)" xlink:href="#aT"/><use transform="matrix(0.05,0,0,0.05,61.95,0)" xlink:href="#aT"/></g><g id="D"><use transform="matrix(0.05,0,0,0.05,0,0)" xlink:href="#aZ"/><use transform="matrix(0.05,0,0,0.05,14.950000000000001,0)" xlink:href="#aY"/><use transform="matrix(0.05,0,0,0.05,24.950000000000003,0)" xlink:href="#aV"/><use transform="matrix(0.05,0,0,0.05,34.95,0)" xlink:href="#aS"/><use transform="matrix(0.05,0,0,0.05,44.95,0)" xlink:href="#bk"/><use transform="matrix(0.05,0,0,0.05,49.95,0)" xlink:href="#aY"/><use transform="matrix(0.05,0,0,0.05,59.95,0)" xlink:href="#be"/><use transform="matrix(0.05,0,0,0.05,68.95,0)" xlink:href="#ba"/><use transform="matrix(0.05,0,0,0.05,73.95,0)" xlink:href="#aS"/><use transform="matrix(0.05,0,0,0.05,83.95,0)" xlink:href="#bb"/><use transform="matrix(0.05,0,0,0.05,89.9,0)" xlink:href="#aW"/><use transform="matrix(0.05,0,0,0.05,99.9,0)" xlink:href="#bb"/></g><g id="E"><use transform="matrix(0.05,0,0,0.05,0,0)" xlink:href="#aZ"/><use transform="matrix(0.05,0,0,0.05,14.950000000000001,0)" xlink:href="#bi"/><use transform="matrix(0.05,0,0,0.05,24.950000000000003,0)" xlink:href="#bd"/><use transform="matrix(0.05,0,0,0.05,34.95,0)" xlink:href="#aW"/><use transform="matrix(0.05,0,0,0.05,44.95,0)" xlink:href="#br"/><use transform="matrix(0.05,0,0,0.05,48.900000000000006,0)" xlink:href="#aX"/><use transform="matrix(0.05,0,0,0.05,58.900000000000006,0)" xlink:href="#aV"/><use transform="matrix(0.05,0,0,0.05,68.9,0)" xlink:href="#aS"/><use transform="matrix(0.05,0,0,0.05,78.9,0)" xlink:href="#aZ"/></g><path d="M185-189c-5-48-123-54-124 2 14 75 158 14 163 119 3 78-121 87-175 55-17-10-28-26-33-46l33-7c5 56 141 63 141-1 0-78-155-14-162-118-5-82 145-84 179-34 5 7 8 16 11 25" id="bt"/><path d="M232-93c-1 65-40 97-104 97C67 4 28-28 28-90v-158h33c8 89-33 224 67 224 102 0 64-133 71-224h33v155" id="bu"/><g id="F"><use transform="matrix(0.05,0,0,0.05,0,0)" xlink:href="#bt"/><use transform="matrix(0.05,0,0,0.05,12,0)" xlink:href="#aO"/><use transform="matrix(0.05,0,0,0.05,24,0)" xlink:href="#bu"/></g><g id="G"><use transform="matrix(0.05,0,0,0.05,0,0)" xlink:href="#aT"/><use transform="matrix(0.05,0,0,0.05,9,0)" xlink:href="#aW"/><use transform="matrix(0.05,0,0,0.05,19,0)" xlink:href="#bb"/><use transform="matrix(0.05,0,0,0.05,24.95,0)" xlink:href="#aU"/><use transform="matrix(0.05,0,0,0.05,28.899999999999995,0)" xlink:href="#aY"/><use transform="matrix(0.05,0,0,0.05,38.9,0)" xlink:href="#br"/><use transform="matrix(0.05,0,0,0.05,42.85,0)" xlink:href="#aX"/><use transform="matrix(0.05,0,0,0.05,52.85,0)" xlink:href="#aV"/><use transform="matrix(0.05,0,0,0.05,62.85,0)" xlink:href="#aS"/><use transform="matrix(0.05,0,0,0.05,72.85,0)" xlink:href="#aZ"/><use transform="matrix(0.05,0,0,0.05,87.8,0)" xlink:href="#aR"/><use transform="matrix(0.05,0,0,0.05,97.8,0)" xlink:href="#aW"/><use transform="matrix(0.05,0,0,0.05,107.80000000000001,0)" xlink:href="#bb"/></g><g id="H"><use transform="matrix(0.05,0,0,0.05,0,0)" xlink:href="#aT"/><use transform="matrix(0.05,0,0,0.05,9,0)" xlink:href="#ba"/><use transform="matrix(0.05,0,0,0.05,14,0)" xlink:href="#bb"/><use transform="matrix(0.05,0,0,0.05,19.95,0)" xlink:href="#aU"/><use transform="matrix(0.05,0,0,0.05,23.9,0)" xlink:href="#aV"/><use transform="matrix(0.05,0,0,0.05,33.9,0)" xlink:href="#bc"/></g><g id="I"><use transform="matrix(0.05,0,0,0.05,0,0)" xlink:href="#bi"/><use transform="matrix(0.05,0,0,0.05,10,0)" xlink:href="#bb"/></g><path d="M190 0L58-211 59 0H30v-248h39L202-35l-2-213h31V0h-41" id="bv"/><path d="M30 0v-248h33v221h125V0H30" id="bw"/><g id="J"><use transform="matrix(0.05,0,0,0.05,0,0)" xlink:href="#bv"/><use transform="matrix(0.05,0,0,0.05,12.950000000000001,0)" xlink:href="#bu"/><use transform="matrix(0.05,0,0,0.05,25.900000000000002,0)" xlink:href="#bw"/><use transform="matrix(0.05,0,0,0.05,35.900000000000006,0)" xlink:href="#bw"/></g><g id="K"><use transform="matrix(0.05,0,0,0.05,0,0)" xlink:href="#bh"/><use transform="matrix(0.05,0,0,0.05,10,0)" xlink:href="#bb"/><use transform="matrix(0.05,0,0,0.05,15.949999999999998,0)" xlink:href="#aU"/><use transform="matrix(0.05,0,0,0.05,19.9,0)" xlink:href="#be"/><use transform="matrix(0.05,0,0,0.05,28.899999999999995,0)" xlink:href="#aW"/></g><g id="L"><use transform="matrix(0.05,0,0,0.05,0,0)" xlink:href="#bd"/><use transform="matrix(0.05,0,0,0.05,10,0)" xlink:href="#bi"/><use transform="matrix(0.05,0,0,0.05,20,0)" xlink:href="#aS"/><use transform="matrix(0.05,0,0,0.05,30,0)" xlink:href="#aR"/><use transform="matrix(0.05,0,0,0.05,40,0)" xlink:href="#br"/><use transform="matrix(0.05,0,0,0.05,43.95,0)" xlink:href="#aW"/></g><path fill="#666" d="M240 0l2-218c-23 76-54 145-80 218h-23L58-218 59 0H30v-248h44l77 211c21-75 51-140 76-211h43V0h-30" id="bx"/><g id="M"><use transform="matrix(0.04320987654320988,0,0,0.04320987654320988,0,0)" xlink:href="#bp"/><use transform="matrix(0.04320987654320988,0,0,0.04320987654320988,11.19135802469136,0)" xlink:href="#aI"/><use transform="matrix(0.04320987654320988,0,0,0.04320987654320988,22.38271604938272,0)" xlink:href="#aJ"/><use transform="matrix(0.04320987654320988,0,0,0.04320987654320988,32.75308641975309,0)" xlink:href="#bq"/><use transform="matrix(0.04320987654320988,0,0,0.04320987654320988,41.91358024691358,0)" xlink:href="#bn"/><use transform="matrix(0.04320987654320988,0,0,0.04320987654320988,54.01234567901235,0)" xlink:href="#bx"/><use transform="matrix(0.04320987654320988,0,0,0.04320987654320988,66.9320987654321,0)" xlink:href="#aM"/><use transform="matrix(0.04320987654320988,0,0,0.04320987654320988,77.30246913580247,0)" xlink:href="#bm"/></g><g id="N"><use transform="matrix(0.05,0,0,0.05,0,0)" xlink:href="#aN"/><use transform="matrix(0.05,0,0,0.05,12,0)" xlink:href="#aO"/></g><g id="O"><use transform="matrix(0.05,0,0,0.05,0,0)" xlink:href="#be"/><use transform="matrix(0.05,0,0,0.05,9,0)" xlink:href="#aS"/><use transform="matrix(0.05,0,0,0.05,19,0)" xlink:href="#aT"/><use transform="matrix(0.05,0,0,0.05,28,0)" xlink:href="#ba"/><use transform="matrix(0.05,0,0,0.05,33,0)" xlink:href="#bi"/><use transform="matrix(0.05,0,0,0.05,43,0)" xlink:href="#aZ"/><use transform="matrix(0.05,0,0,0.05,57.95,0)" xlink:href="#aW"/><use transform="matrix(0.05,0,0,0.05,67.95,0)" xlink:href="#bb"/><use transform="matrix(0.05,0,0,0.05,73.9,0)" xlink:href="#aX"/><use transform="matrix(0.05,0,0,0.05,83.9,0)" xlink:href="#aU"/><use transform="matrix(0.05,0,0,0.05,87.85000000000001,0)" xlink:href="#bd"/></g><g id="P"><use transform="matrix(0.05,0,0,0.05,0,0)" xlink:href="#bk"/><use transform="matrix(0.05,0,0,0.05,5,0)" xlink:href="#aU"/><use transform="matrix(0.05,0,0,0.05,8.95,0)" xlink:href="#bb"/><use transform="matrix(0.05,0,0,0.05,14.899999999999999,0)" xlink:href="#aT"/><use transform="matrix(0.05,0,0,0.05,23.9,0)" xlink:href="#ba"/><use transform="matrix(0.05,0,0,0.05,28.899999999999995,0)" xlink:href="#aX"/><use transform="matrix(0.05,0,0,0.05,38.9,0)" xlink:href="#aV"/><use transform="matrix(0.05,0,0,0.05,48.9,0)" xlink:href="#aY"/><use transform="matrix(0.05,0,0,0.05,58.900000000000006,0)" xlink:href="#aZ"/><use transform="matrix(0.05,0,0,0.05,73.85,0)" xlink:href="#aW"/></g><g id="Q"><use transform="matrix(0.05,0,0,0.05,0,0)" xlink:href="#br"/><use transform="matrix(0.05,0,0,0.05,3.95,0)" xlink:href="#aY"/><use transform="matrix(0.05,0,0,0.05,13.949999999999998,0)" xlink:href="#aT"/><use transform="matrix(0.05,0,0,0.05,22.95,0)" xlink:href="#ba"/><use transform="matrix(0.05,0,0,0.05,27.950000000000003,0)" xlink:href="#aX"/><use transform="matrix(0.05,0,0,0.05,37.95,0)" xlink:href="#aV"/><use transform="matrix(0.05,0,0,0.05,47.95,0)" xlink:href="#aY"/><use transform="matrix(0.05,0,0,0.05,57.95,0)" xlink:href="#aZ"/><use transform="matrix(0.05,0,0,0.05,72.9,0)" xlink:href="#aW"/></g><g id="R"><use transform="matrix(0.04320987654320988,0,0,0.04320987654320988,0,0)" xlink:href="#bn"/><use transform="matrix(0.04320987654320988,0,0,0.04320987654320988,12.098765432098766,0)" xlink:href="#bm"/><use transform="matrix(0.04320987654320988,0,0,0.04320987654320988,23.290123456790127,0)" xlink:href="#bo"/><use transform="matrix(0.04320987654320988,0,0,0.04320987654320988,34.48148148148149,0)" xlink:href="#aM"/><use transform="matrix(0.04320987654320988,0,0,0.04320987654320988,44.85185185185187,0)" xlink:href="#bm"/></g><g id="S"><use transform="matrix(0.05,0,0,0.05,0,0)" xlink:href="#bi"/><use transform="matrix(0.05,0,0,0.05,10,0)" xlink:href="#bb"/><use transform="matrix(0.05,0,0,0.05,15.949999999999998,0)" xlink:href="#bd"/><use transform="matrix(0.05,0,0,0.05,25.950000000000003,0)" xlink:href="#aW"/><use transform="matrix(0.05,0,0,0.05,35.95,0)" xlink:href="#bb"/><use transform="matrix(0.05,0,0,0.05,41.900000000000006,0)" xlink:href="#aX"/><use transform="matrix(0.05,0,0,0.05,51.900000000000006,0)" xlink:href="#aV"/><use transform="matrix(0.05,0,0,0.05,61.900000000000006,0)" xlink:href="#aS"/><use transform="matrix(0.05,0,0,0.05,71.9,0)" xlink:href="#aZ"/><use transform="matrix(0.05,0,0,0.05,86.85000000000001,0)" xlink:href="#aR"/><use transform="matrix(0.05,0,0,0.05,96.85000000000001,0)" xlink:href="#aW"/><use transform="matrix(0.05,0,0,0.05,106.85000000000001,0)" xlink:href="#bb"/></g><g id="T"><use transform="matrix(0.05,0,0,0.05,0,0)" xlink:href="#aQ"/><use transform="matrix(0.05,0,0,0.05,10.950000000000001,0)" xlink:href="#aO"/></g><g id="U"><use transform="matrix(0.05,0,0,0.05,0,0)" xlink:href="#ba"/><use transform="matrix(0.05,0,0,0.05,5,0)" xlink:href="#bi"/><use transform="matrix(0.05,0,0,0.05,15,0)" xlink:href="#aX"/><use transform="matrix(0.05,0,0,0.05,25,0)" xlink:href="#aT"/><use transform="matrix(0.05,0,0,0.05,34,0)" xlink:href="#ba"/><use transform="matrix(0.05,0,0,0.05,39,0)" xlink:href="#bb"/><use transform="matrix(0.05,0,0,0.05,44.95,0)" xlink:href="#aW"/><use transform="matrix(0.05,0,0,0.05,54.95,0)" xlink:href="#aW"/><use transform="matrix(0.05,0,0,0.05,64.95,0)" xlink:href="#ba"/></g><g id="V"><use transform="matrix(0.05,0,0,0.05,0,0)" xlink:href="#ba"/><use transform="matrix(0.05,0,0,0.05,5,0)" xlink:href="#bi"/><use transform="matrix(0.05,0,0,0.05,15,0)" xlink:href="#aX"/><use transform="matrix(0.05,0,0,0.05,25,0)" xlink:href="#be"/><use transform="matrix(0.05,0,0,0.05,34,0)" xlink:href="#aU"/><use transform="matrix(0.05,0,0,0.05,37.95,0)" xlink:href="#ba"/><use transform="matrix(0.05,0,0,0.05,42.95,0)" xlink:href="#bf"/></g><g id="W"><use transform="matrix(0.05,0,0,0.05,0,0)" xlink:href="#ba"/><use transform="matrix(0.05,0,0,0.05,5,0)" xlink:href="#bi"/><use transform="matrix(0.05,0,0,0.05,15,0)" xlink:href="#aX"/><use transform="matrix(0.05,0,0,0.05,25,0)" xlink:href="#aT"/><use transform="matrix(0.05,0,0,0.05,34,0)" xlink:href="#ba"/><use transform="matrix(0.05,0,0,0.05,39,0)" xlink:href="#aY"/><use transform="matrix(0.05,0,0,0.05,49,0)" xlink:href="#ba"/><use transform="matrix(0.05,0,0,0.05,54,0)" xlink:href="#aW"/></g><g id="X"><use transform="matrix(0.05,0,0,0.05,0,0)" xlink:href="#bi"/><use transform="matrix(0.05,0,0,0.05,10,0)" xlink:href="#bb"/><use transform="matrix(0.05,0,0,0.05,15.949999999999998,0)" xlink:href="#bd"/><use transform="matrix(0.05,0,0,0.05,25.950000000000003,0)" xlink:href="#aW"/><use transform="matrix(0.05,0,0,0.05,35.95,0)" xlink:href="#bb"/><use transform="matrix(0.05,0,0,0.05,41.900000000000006,0)" xlink:href="#aX"/><use transform="matrix(0.05,0,0,0.05,51.900000000000006,0)" xlink:href="#bd"/><use transform="matrix(0.05,0,0,0.05,61.900000000000006,0)" xlink:href="#aY"/><use transform="matrix(0.05,0,0,0.05,71.9,0)" xlink:href="#ba"/><use transform="matrix(0.05,0,0,0.05,76.9,0)" xlink:href="#aW"/></g><g id="Y"><use transform="matrix(0.05,0,0,0.05,0,0)" xlink:href="#bd"/><use transform="matrix(0.05,0,0,0.05,10,0)" xlink:href="#aY"/><use transform="matrix(0.05,0,0,0.05,20,0)" xlink:href="#ba"/><use transform="matrix(0.05,0,0,0.05,25,0)" xlink:href="#aW"/></g><g id="Z"><use transform="matrix(0.05,0,0,0.05,0,0)" xlink:href="#aT"/><use transform="matrix(0.05,0,0,0.05,9,0)" xlink:href="#bj"/><use transform="matrix(0.05,0,0,0.05,19,0)" xlink:href="#aU"/><use transform="matrix(0.05,0,0,0.05,22.95,0)" xlink:href="#bh"/><use transform="matrix(0.05,0,0,0.05,32.95,0)" xlink:href="#aX"/><use transform="matrix(0.05,0,0,0.05,42.95,0)" xlink:href="#bd"/><use transform="matrix(0.05,0,0,0.05,52.95,0)" xlink:href="#aY"/><use transform="matrix(0.05,0,0,0.05,62.95,0)" xlink:href="#ba"/><use transform="matrix(0.05,0,0,0.05,67.95,0)" xlink:href="#aW"/></g><g id="aa"><use transform="matrix(0.05,0,0,0.05,0,0)" xlink:href="#bb"/><use transform="matrix(0.05,0,0,0.05,5.95,0)" xlink:href="#aW"/><use transform="matrix(0.05,0,0,0.05,15.949999999999998,0)" xlink:href="#ba"/><use transform="matrix(0.05,0,0,0.05,20.95,0)" xlink:href="#aS"/><use transform="matrix(0.05,0,0,0.05,30.950000000000003,0)" xlink:href="#bb"/><use transform="matrix(0.05,0,0,0.05,36.9,0)" xlink:href="#aV"/><use transform="matrix(0.05,0,0,0.05,46.9,0)" xlink:href="#aX"/><use transform="matrix(0.05,0,0,0.05,56.900000000000006,0)" xlink:href="#bd"/><use transform="matrix(0.05,0,0,0.05,66.9,0)" xlink:href="#aY"/><use transform="matrix(0.05,0,0,0.05,76.9,0)" xlink:href="#ba"/><use transform="matrix(0.05,0,0,0.05,81.9,0)" xlink:href="#aW"/></g><g id="ab"><use transform="matrix(0.05,0,0,0.05,0,0)" xlink:href="#bi"/><use transform="matrix(0.05,0,0,0.05,10,0)" xlink:href="#bb"/><use transform="matrix(0.05,0,0,0.05,15.949999999999998,0)" xlink:href="#bd"/><use transform="matrix(0.05,0,0,0.05,25.950000000000003,0)" xlink:href="#aW"/><use transform="matrix(0.05,0,0,0.05,35.95,0)" xlink:href="#bb"/><use transform="matrix(0.05,0,0,0.05,41.900000000000006,0)" xlink:href="#aX"/><use transform="matrix(0.05,0,0,0.05,51.900000000000006,0)" xlink:href="#ba"/><use transform="matrix(0.05,0,0,0.05,56.900000000000006,0)" xlink:href="#bi"/><use transform="matrix(0.05,0,0,0.05,66.9,0)" xlink:href="#ba"/><use transform="matrix(0.05,0,0,0.05,71.9,0)" xlink:href="#aY"/><use transform="matrix(0.05,0,0,0.05,81.9,0)" xlink:href="#br"/></g></defs></g></svg>